<?xml version="1.0" encoding="utf-8"?>
<!-- Generator: Adobe Illustrator 27.0.0, SVG Export Plug-In . SVG Version: 6.00 Build 0)  -->
<svg version="1.1" id="Logo_00000044151755996106662530000012548814353111343773_"
	 xmlns="http://www.w3.org/2000/svg" xmlns:xlink="http://www.w3.org/1999/xlink" x="0px" y="0px" viewBox="0 0 490.5 103.3"
	 style="enable-background:new 0 0 490.5 103.3;" xml:space="preserve">
<style type="text/css">
	.st0{fill:#FFFFFF;}
</style>
<g id="POstOr">
	<g>
		<path class="st0" d="M124.3,11.6h28.3c11.4,0,17.1,8.5,17.1,17c0,8.5-5.7,17-17.1,17h-15.7v18.2h-12.6V11.6z M136.9,35.1h14.3
			c4.2,0,6.3-3.2,6.3-6.5c0-3.2-2.1-6.5-6.3-6.5h-14.3V35.1z"/>
		<path class="st0" d="M203.9,65.5c-13.7,0-29.7-9.2-29.7-27.8c0-18.6,16-27.8,29.7-27.8c13.6,0,29.7,9.2,29.7,27.8
			C233.5,56.3,217.5,65.5,203.9,65.5z M203.9,21.8c-7.8,0-16.9,5.2-16.9,15.9c0,10.7,9.1,15.8,16.9,15.8c7.8,0,16.8-5.1,16.8-15.8
			C220.7,27,211.6,21.8,203.9,21.8z"/>
		<path class="st0" d="M288.8,28c-4.8-4.2-13.8-6.8-20.8-6.8c-5.5,0-9.7,1.6-9.7,5.1c0,9.1,36.8,2.2,36.8,23
			c0,11.5-11.9,16.1-24.9,16.1c-10.6,0-21.9-3.1-28.3-8l6.2-10.4c4.9,4.5,15.4,7.4,23.3,7.4c5.5,0,9.8-1.5,9.8-4.8
			c0-9.5-36.6-2.9-36.6-23.6c0-11.5,10.7-16,22.8-16c10,0,20.9,3,27.4,7.7L288.8,28z"/>
		<path class="st0" d="M359.4,11.6V22h-58.2V11.6H359.4z M324,30.2h12.6v33.5H324V30.2z"/>
		<path class="st0" d="M395.4,65.5c-13.7,0-29.7-9.2-29.7-27.8c0-18.6,16-27.8,29.7-27.8c13.6,0,29.7,9.2,29.7,27.8
			C425.1,56.3,409.1,65.5,395.4,65.5z M395.4,21.8c-7.8,0-16.9,5.2-16.9,15.9c0,10.7,9.1,15.8,16.9,15.8c7.8,0,16.8-5.1,16.8-15.8
			C412.3,27,403.2,21.8,395.4,21.8z"/>
		<path class="st0" d="M435,44.2V33.7h29.3c4.8,0,7.2-2.9,7.2-5.8s-2.4-5.8-7.2-5.8H435V11.6h31.5c11.5,0,17.1,8.1,17.1,16.3
			c0,6.3-3.5,12.7-10.5,15.2l16,20.7h-15.7l-13.8-19.6H435z"/>
	</g>
</g>
<g id="Social_Media_Made_Simple">
	<g>
		<path class="st0" d="M126.8,92.6c-0.8-0.3-1.4-0.8-1.8-1.5c-0.4-0.6-0.7-1.3-0.7-2.2h2.1c0.1,0.7,0.4,1.3,0.9,1.8
			c0.5,0.5,1.2,0.7,2.2,0.7c0.9,0,1.7-0.2,2.2-0.7c0.5-0.5,0.8-1.1,0.8-1.8c0-0.6-0.2-1-0.5-1.4c-0.3-0.4-0.7-0.6-1.2-0.8
			c-0.5-0.2-1.1-0.4-1.9-0.6c-1-0.3-1.8-0.5-2.4-0.8c-0.6-0.3-1.1-0.7-1.5-1.2s-0.6-1.3-0.6-2.2c0-0.8,0.2-1.5,0.6-2.2
			c0.4-0.6,1-1.1,1.7-1.5s1.6-0.5,2.6-0.5c1.4,0,2.5,0.3,3.4,1c0.9,0.7,1.4,1.6,1.5,2.8h-2.1c-0.1-0.6-0.4-1.1-0.9-1.5
			c-0.5-0.4-1.2-0.7-2.1-0.7c-0.8,0-1.5,0.2-2,0.6c-0.5,0.4-0.8,1-0.8,1.8c0,0.5,0.2,1,0.5,1.3s0.7,0.6,1.1,0.8
			c0.5,0.2,1.1,0.4,1.9,0.6c1,0.3,1.8,0.5,2.4,0.8c0.6,0.3,1.1,0.7,1.5,1.2c0.4,0.6,0.6,1.3,0.6,2.2c0,0.7-0.2,1.4-0.6,2.1
			c-0.4,0.6-1,1.2-1.7,1.6c-0.8,0.4-1.6,0.6-2.7,0.6C128.4,93.1,127.5,93,126.8,92.6z"/>
		<path class="st0" d="M143.8,92.2c-1.1-0.6-2-1.6-2.7-2.7c-0.7-1.2-1-2.5-1-3.9s0.3-2.8,1-3.9c0.7-1.2,1.6-2.1,2.7-2.7
			c1.1-0.7,2.4-1,3.8-1c1.4,0,2.7,0.3,3.8,1c1.1,0.7,2,1.6,2.7,2.7c0.7,1.2,1,2.5,1,3.9c0,1.5-0.3,2.8-1,3.9
			c-0.7,1.2-1.6,2.1-2.7,2.7c-1.1,0.7-2.4,1-3.8,1C146.2,93.1,144.9,92.8,143.8,92.2z M150.4,90.7c0.8-0.5,1.5-1.2,2-2.1
			c0.5-0.9,0.7-1.9,0.7-3.1c0-1.2-0.2-2.2-0.7-3.1s-1.1-1.6-2-2.1s-1.8-0.7-2.8-0.7c-1.1,0-2,0.2-2.8,0.7s-1.5,1.2-2,2.1
			s-0.7,1.9-0.7,3.1c0,1.2,0.2,2.2,0.7,3.1c0.5,0.9,1.1,1.6,2,2.1c0.8,0.5,1.8,0.7,2.8,0.7C148.6,91.4,149.5,91.2,150.4,90.7z"/>
		<path class="st0" d="M161.4,81.6c0.7-1.2,1.6-2.1,2.7-2.7s2.4-1,3.8-1c1.6,0,3,0.4,4.3,1.2c1.2,0.8,2.1,1.9,2.7,3.3h-2.3
			c-0.4-0.9-1-1.6-1.8-2.1c-0.8-0.5-1.7-0.7-2.8-0.7c-1,0-2,0.2-2.8,0.7s-1.5,1.2-1.9,2.1c-0.5,0.9-0.7,1.9-0.7,3.1
			c0,1.2,0.2,2.2,0.7,3.1c0.5,0.9,1.1,1.6,1.9,2.1c0.8,0.5,1.8,0.7,2.8,0.7c1.1,0,2-0.2,2.8-0.7c0.8-0.5,1.4-1.2,1.8-2.1h2.3
			c-0.6,1.4-1.4,2.5-2.7,3.3c-1.2,0.8-2.6,1.2-4.3,1.2c-1.4,0-2.6-0.3-3.8-1c-1.1-0.6-2-1.6-2.7-2.7c-0.7-1.2-1-2.5-1-3.9
			S160.8,82.7,161.4,81.6z"/>
		<path class="st0" d="M183.2,78V93h-1.9V78H183.2z"/>
		<path class="st0" d="M198.9,89.7h-6.5l-1.2,3.3h-2.1l5.4-14.8h2.2l5.4,14.8h-2.1L198.9,89.7z M198.3,88.1l-2.7-7.5l-2.7,7.5H198.3
			z"/>
		<path class="st0" d="M210,91.4h5.2V93H208V78h1.9V91.4z"/>
		<path class="st0" d="M245.2,78.1V93h-2V81.9L238.3,93H237L232,81.9V93h-1.9V78.1h2.1l5.5,12.3l5.5-12.3H245.2z"/>
		<path class="st0" d="M254,79.6v5h5.4v1.6H254v5.1h6.1V93h-8V78h8v1.6H254z"/>
		<path class="st0" d="M275.5,79c1.2,0.6,2.1,1.5,2.7,2.6c0.6,1.1,1,2.5,1,4c0,1.5-0.3,2.9-1,4c-0.6,1.1-1.6,2-2.7,2.6
			c-1.2,0.6-2.6,0.9-4.2,0.9h-4.7V78h4.7C272.9,78,274.3,78.3,275.5,79z M275.6,89.8c1-1,1.5-2.5,1.5-4.3c0-1.9-0.5-3.3-1.5-4.3
			c-1-1-2.5-1.6-4.4-1.6h-2.7v11.7h2.7C273.2,91.4,274.6,90.9,275.6,89.8z"/>
		<path class="st0" d="M287.2,78V93h-2V78H287.2z"/>
		<path class="st0" d="M302.9,89.7h-6.5l-1.2,3.3h-2.1l5.4-14.8h2.2l5.4,14.8h-2.1L302.9,89.7z M302.3,88.1l-2.7-7.5l-2.7,7.5H302.3
			z"/>
		<path class="st0" d="M336.5,78.1V93h-2V81.9L329.6,93h-1.4l-5-11.1V93h-2V78.1h2.1l5.5,12.3l5.5-12.3H336.5z"/>
		<path class="st0" d="M352.1,89.7h-6.5l-1.2,3.3h-2.1l5.4-14.8h2.2l5.4,14.8h-2.1L352.1,89.7z M351.6,88.1l-2.7-7.5l-2.7,7.5H351.6
			z"/>
		<path class="st0" d="M370.1,79c1.2,0.6,2.1,1.5,2.7,2.6c0.6,1.1,1,2.5,1,4c0,1.5-0.3,2.9-1,4c-0.6,1.1-1.6,2-2.7,2.6
			c-1.2,0.6-2.6,0.9-4.2,0.9h-4.7V78h4.7C367.5,78,369,78.3,370.1,79z M370.3,89.8c1-1,1.5-2.5,1.5-4.3c0-1.9-0.5-3.3-1.5-4.3
			c-1-1-2.5-1.6-4.4-1.6h-2.7v11.7h2.7C367.8,91.4,369.3,90.9,370.3,89.8z"/>
		<path class="st0" d="M381.9,79.6v5h5.4v1.6h-5.4v5.1h6.1V93h-8V78h8v1.6H381.9z"/>
		<path class="st0" d="M405.8,92.6c-0.8-0.3-1.4-0.8-1.8-1.5c-0.4-0.6-0.7-1.3-0.7-2.2h2.1c0.1,0.7,0.4,1.3,0.9,1.8
			c0.5,0.5,1.2,0.7,2.2,0.7c0.9,0,1.7-0.2,2.2-0.7c0.5-0.5,0.8-1.1,0.8-1.8c0-0.6-0.2-1-0.5-1.4c-0.3-0.4-0.7-0.6-1.2-0.8
			c-0.5-0.2-1.1-0.4-1.9-0.6c-1-0.3-1.8-0.5-2.4-0.8c-0.6-0.3-1.1-0.7-1.5-1.2c-0.4-0.5-0.6-1.3-0.6-2.2c0-0.8,0.2-1.5,0.6-2.2
			c0.4-0.6,1-1.1,1.7-1.5s1.6-0.5,2.6-0.5c1.4,0,2.5,0.3,3.4,1s1.4,1.6,1.5,2.8h-2.1c-0.1-0.6-0.4-1.1-0.9-1.5
			c-0.5-0.4-1.2-0.7-2.1-0.7c-0.8,0-1.5,0.2-2,0.6c-0.5,0.4-0.8,1-0.8,1.8c0,0.5,0.2,1,0.5,1.3c0.3,0.3,0.7,0.6,1.1,0.8
			c0.4,0.2,1.1,0.4,1.9,0.6c1,0.3,1.8,0.5,2.4,0.8c0.6,0.3,1.1,0.7,1.5,1.2c0.4,0.6,0.6,1.3,0.6,2.2c0,0.7-0.2,1.4-0.6,2.1
			c-0.4,0.6-1,1.2-1.7,1.6c-0.8,0.4-1.6,0.6-2.7,0.6C407.5,93.1,406.6,93,405.8,92.6z"/>
		<path class="st0" d="M421.8,78V93h-2V78H421.8z"/>
		<path class="st0" d="M443.8,78.1V93h-2V81.9L436.9,93h-1.4l-5-11.1V93h-2V78.1h2.1l5.5,12.3l5.5-12.3H443.8z"/>
		<path class="st0" d="M459.3,85.5c-0.9,0.8-2.1,1.2-3.9,1.2h-2.9V93h-2V78h4.8c1.7,0,3,0.4,3.8,1.2c0.9,0.8,1.3,1.9,1.3,3.1
			C460.6,83.7,460.2,84.7,459.3,85.5z M457.9,84.4c0.5-0.5,0.8-1.1,0.8-2c0-1.8-1.1-2.8-3.2-2.8h-2.9v5.5h2.9
			C456.5,85.1,457.3,84.9,457.9,84.4z"/>
		<path class="st0" d="M468.5,91.4h5.2V93h-7.2V78h2V91.4z"/>
		<path class="st0" d="M481.3,79.6v5h5.4v1.6h-5.4v5.1h6.1V93h-8V78h8v1.6H481.3z"/>
	</g>
</g>
<g id="Rectangle_3">
	<g>
		<path class="st0" d="M55.8,2.2H17.7c-8.2,0-15.4,6.2-16,14.4c-0.3,4.7,1.5,9,4.5,12c2.8,2.8,6.7,4.5,11,4.5h34.2
			c8.7,0,12,4.5,12,11.3c0,6.8-3.3,11.3-12,11.3H17C8.6,55.8,1.8,62.6,1.8,71c0,0.1,0,0.2,0,0.3v15.9c0,8.1,6.6,14.7,14.7,14.7
			c8,0,14.5-6.5,14.5-14.5v-1.2h24.8c31,0,46.9-19,46.9-41.8C102.7,19.6,86.8,2.2,55.8,2.2z"/>
	</g>
</g>
</svg>
